#!OML:ASF H:\Terrain\Patient Classification 1\Walking\steve\steve.ASF
:FULLY-SPECIFIED
:DEGREES
76
root 7.58163 15.8075 -21.858 8.72465 2.85468 -0.480557
lowerback -0.114471 1.34802 2.15441
upperback -2.97205 1.91133 2.88747
thorax -3.02016 0.941891 1.71487
lowerneck -10.7707 -1.29414 -0.626003
upperneck 14.4124 -1.52871 -0.746557
head 6.14211 -0.83176 -0.262091
rclavicle 9.98893e-015 -5.56597e-015
rhumerus -38.2914 -0.25515 -81.2071
rradius 38.8556
rwrist -4.12265
rhand -25.5891 -38.9176
rfingers 7.12502
rthumb 0.942619 -68.8953
lclavicle 9.98893e-015 -5.56597e-015
lhumerus -38.3469 -0.516281 85.8838
lradius 20.1594
lwrist -4.78334
lhand -19.086 -13.3603
lfingers 7.12502
lthumb 7.22209 16.4965
rfemur -25.0264 2.55496 25.8728
rtibia 40.8772
rfoot -18.0262 13.1799
rtoes 8.24918
lfemur -21.9081 6.02404 -21.173
ltibia 58.3318
lfoot -12.244 -2.33324
ltoes -16.3544
77
root 7.59436 15.8066 -21.6932 8.56657 2.57843 -0.675965
lowerback -0.166177 1.52078 2.35399
upperback -2.91785 2.13936 2.8462
thorax -2.92978 1.0505 1.55724
lowerneck -7.34691 -0.761325 -2.39993
upperneck 11.298 -0.959213 1.86546
head 4.6113 -0.459092 0.908611
rclavicle 2.01269e-014 5.00937e-014
rhumerus -37.8219 -0.826251 -80.3389
rradius 40.6669
rwrist 1.50114
rhand -17.1091 -42.4312
rfingers 7.12502
rthumb 9.13006 -72.2135
lclavicle 2.01269e-014 5.00937e-014
lhumerus -39.3855 -1.21472 85.7865
lradius 20.5715
lwrist -3.76781
lhand -23.9603 -12.2481
lfingers 7.12502
lthumb 2.51569 17.7168
rfemur -24.2642 2.11611 26.1105
rtibia 40.7647
rfoot -18.3063 13.5987
rtoes 5.46992
lfemur -23.0751 6.06734 -21.141
ltibia 57.9462
lfoot -12.7612 -2.25196
ltoes -13.9883
78
root 7.60619 15.8082 -21.5291 8.37732 2.39066 -0.962635
lowerback -0.0882159 1.70034 2.65866
upperback -2.85574 2.38366 2.81386
thorax -2.89899 1.16451 1.34674
lowerneck -9.25518 -1.26018 -1.50056
upperneck 13.5471 -1.55929 0.555586
head 5.62771 -0.793098 0.303226
rclavicle -3.8763e-015 -2.3059e-014
rhumerus -37.3152 -0.0675564 -80.666
rradius 41.4805
rwrist -0.753219
rhand -20.31 -41.0949
rfingers 7.12502
rthumb 6.04053 -70.9888
lclavicle -3.8763e-015 -2.3059e-014
lhumerus -40.4386 -2.34285 85.9818
lradius 21.2671
lwrist -2.27
lhand -25.8267 -15.0141
lfingers 7.12502
lthumb 0.713094 14.9645
rfemur -23.4169 1.61541 26.458
rtibia 40.5492
rfoot -18.7134 14.0519
rtoes 4.68594
lfemur -24.356 5.88007 -20.9064
ltibia 57.5164
lfoot -13.51 -2.13513
ltoes -12.1377
79
root 7.61499 15.812 -21.3633 8.18286 2.36263 -1.19755
lowerback -0.00416607 1.81448 2.82968
upperback -2.77849 2.54038 2.85107
thorax -2.86209 1.23948 1.28447
lowerneck -10.0183 -1.48368 -1.17833
upperneck 14.4667 -1.81002 -0.0589709
head 6.04158 -0.943956 0.0285719
rclavicle -1.04859e-014 4.21423e-014
rhumerus -36.7213 0.599411 -80.7288
rradius 42.4626
rwrist -1.70057
rhand -20.7215 -41.291
rfingers 7.12502
rthumb 5.64321 -71.1959
lclavicle -1.04859e-014 4.21423e-014
lhumerus -41.5441 -3.49418 86.395
lradius 22.233
lwrist -0.493266
lhand -24.3898 -23.6277
lfingers 7.12502
lthumb 2.10089 6.34171
rfemur -22.3592 1.11491 26.7441
rtibia 40.2238
rfoot -18.8291 14.5583
rtoes 5.61602
lfemur -25.6099 5.3759 -20.6146
ltibia 57.0127
lfoot -14.4954 -2.60641
ltoes -6.7182
